<?xml version="1.0" standalone="no"?>
<svg xmlns:xlink="http://www.w3.org/1999/xlink" id="wave" style="transform:rotate(180deg); transition: 0.3s" viewBox="0 0 1440 100" version="1.1" xmlns="http://www.w3.org/2000/svg"><defs><linearGradient id="sw-gradient-0" x1="0" x2="0" y1="1" y2="0"><stop stop-color="rgba(247, 252, 248, 1)" offset="0%"/><stop stop-color="rgba(247, 252, 248, 1)" offset="100%"/></linearGradient></defs><path style="transform:translate(0, 0px); opacity:1" fill="url(#sw-gradient-0)" d="M0,70L60,60C120,50,240,30,360,33.3C480,37,600,63,720,61.7C840,60,960,30,1080,16.7C1200,3,1320,7,1440,10C1560,13,1680,17,1800,28.3C1920,40,2040,60,2160,56.7C2280,53,2400,27,2520,15C2640,3,2760,7,2880,6.7C3000,7,3120,3,3240,16.7C3360,30,3480,60,3600,61.7C3720,63,3840,37,3960,35C4080,33,4200,57,4320,68.3C4440,80,4560,80,4680,81.7C4800,83,4920,87,5040,81.7C5160,77,5280,63,5400,48.3C5520,33,5640,17,5760,8.3C5880,0,6000,0,6120,3.3C6240,7,6360,13,6480,18.3C6600,23,6720,27,6840,23.3C6960,20,7080,10,7200,10C7320,10,7440,20,7560,26.7C7680,33,7800,37,7920,46.7C8040,57,8160,73,8280,70C8400,67,8520,43,8580,31.7L8640,20L8640,100L8580,100C8520,100,8400,100,8280,100C8160,100,8040,100,7920,100C7800,100,7680,100,7560,100C7440,100,7320,100,7200,100C7080,100,6960,100,6840,100C6720,100,6600,100,6480,100C6360,100,6240,100,6120,100C6000,100,5880,100,5760,100C5640,100,5520,100,5400,100C5280,100,5160,100,5040,100C4920,100,4800,100,4680,100C4560,100,4440,100,4320,100C4200,100,4080,100,3960,100C3840,100,3720,100,3600,100C3480,100,3360,100,3240,100C3120,100,3000,100,2880,100C2760,100,2640,100,2520,100C2400,100,2280,100,2160,100C2040,100,1920,100,1800,100C1680,100,1560,100,1440,100C1320,100,1200,100,1080,100C960,100,840,100,720,100C600,100,480,100,360,100C240,100,120,100,60,100L0,100Z"/></svg>